<?xml version="1.0" encoding="UTF-8" standalone="no"?>
<!DOCTYPE svg PUBLIC "-//W3C//DTD SVG 1.1//EN"
 "http://www.w3.org/Graphics/SVG/1.1/DTD/svg11.dtd">
<!-- Generated by graphviz version 2.43.0 (0)
 -->
<!-- Title: %3 Pages: 1 -->
<svg width="592pt" height="756pt"
 viewBox="0.00 0.00 591.63 755.79" xmlns="http://www.w3.org/2000/svg" xmlns:xlink="http://www.w3.org/1999/xlink">
<g id="graph0" class="graph" transform="scale(1 1) rotate(0) translate(4 751.79)">
<title>%3</title>
<polygon fill="white" stroke="transparent" points="-4,4 -4,-751.79 587.63,-751.79 587.63,4 -4,4"/>
<!-- A -->
<g id="node1" class="node">
<title>A</title>
<ellipse fill="white" stroke="green" stroke-width="1.7" cx="275.63" cy="-655.15" rx="92.76" ry="92.76"/>
<text text-anchor="start" x="210.12" y="-680.75" font-family="Times,serif" font-size="18.00">lab&#45;A:{</text>
<text text-anchor="start" x="215.12" y="-660.75" font-family="Times,serif" font-size="18.00"> &#160;&quot;money&quot; : 100</text>
<text text-anchor="start" x="215.12" y="-640.75" font-family="Times,serif" font-size="18.00"> &#160;&quot;age&quot; : 21</text>
<text text-anchor="start" x="215.12" y="-620.75" font-family="Times,serif" font-size="18.00"> &#160;&quot;weight&quot; : 50}</text>
</g>
<!-- B -->
<g id="node2" class="node">
<title>B</title>
<ellipse fill="white" stroke="green" stroke-width="1.7" cx="275.63" cy="-373.89" rx="92.76" ry="92.76"/>
<text text-anchor="start" x="205.12" y="-399.49" font-family="Times,serif" font-size="18.00">lab&#45;B:{</text>
<text text-anchor="start" x="210.12" y="-379.49" font-family="Times,serif" font-size="18.00"> &#160;&quot;money&quot; : 380</text>
<text text-anchor="start" x="210.12" y="-359.49" font-family="Times,serif" font-size="18.00"> &#160;&quot;age&quot; : 30</text>
<text text-anchor="start" x="210.12" y="-339.49" font-family="Times,serif" font-size="18.00"> &#160;&quot;weight&quot; : 64}</text>
</g>
<!-- A&#45;&gt;B -->
<g id="edge1" class="edge">
<title>A&#45;&gt;B</title>
<path fill="none" stroke="black" stroke-width="1.5" d="M275.63,-562.33C275.63,-535 275.63,-504.9 275.63,-476.96"/>
<polygon fill="black" stroke="black" stroke-width="1.5" points="279.13,-476.78 275.63,-466.78 272.13,-476.78 279.13,-476.78"/>
<text text-anchor="start" x="275.63" y="-530.12" font-family="Times,serif" font-size="18.00">AB:{</text>
<text text-anchor="start" x="280.63" y="-510.12" font-family="Times,serif" font-size="18.00"> &#160;&quot;cost&quot; : 68</text>
<text text-anchor="start" x="280.63" y="-490.12" font-family="Times,serif" font-size="18.00"> &#160;&quot;danger&quot; : 10}</text>
</g>
<!-- C -->
<g id="node3" class="node">
<title>C</title>
<ellipse fill="white" stroke="green" stroke-width="1.7" cx="92.63" cy="-92.63" rx="92.76" ry="92.76"/>
<text text-anchor="start" x="20.12" y="-118.23" font-family="Times,serif" font-size="18.00">lab&#45;C:{</text>
<text text-anchor="start" x="25.12" y="-98.23" font-family="Times,serif" font-size="18.00"> &#160;&quot;money&quot; : 270</text>
<text text-anchor="start" x="25.12" y="-78.23" font-family="Times,serif" font-size="18.00"> &#160;&quot;age&quot; : 18</text>
<text text-anchor="start" x="25.12" y="-58.23" font-family="Times,serif" font-size="18.00"> &#160;&quot;weight&quot; : 48}</text>
</g>
<!-- A&#45;&gt;C -->
<g id="edge2" class="edge">
<title>A&#45;&gt;C</title>
<path fill="none" stroke="black" stroke-width="1.5" d="M196.56,-606.86C149.83,-574.02 94.82,-525.61 68.63,-466.52 29.93,-379.22 43.68,-269.02 62.34,-191.13"/>
<polygon fill="black" stroke="black" stroke-width="1.5" points="65.77,-191.86 64.76,-181.32 58.97,-190.19 65.77,-191.86"/>
<text text-anchor="start" x="68.63" y="-389.49" font-family="Times,serif" font-size="18.00">AC:{</text>
<text text-anchor="start" x="68.63" y="-369.49" font-family="Times,serif" font-size="18.00"> &#160;&quot;cost&quot; : 56</text>
<text text-anchor="start" x="73.63" y="-349.49" font-family="Times,serif" font-size="18.00"> &#160;&quot;danger&quot; : 3}</text>
</g>
<!-- B&#45;&gt;C -->
<g id="edge3" class="edge">
<title>B&#45;&gt;C</title>
<path fill="none" stroke="black" stroke-width="1.5" d="M209.76,-308.28C196.87,-298.1 182.9,-288.54 168.63,-281.26 138.1,-265.68 114.93,-290.12 93.63,-263.26 78.11,-243.69 72.76,-218.47 72.55,-193.49"/>
<polygon fill="black" stroke="black" stroke-width="1.5" points="76.06,-193.26 72.74,-183.19 69.06,-193.13 76.06,-193.26"/>
<text text-anchor="start" x="93.63" y="-248.86" font-family="Times,serif" font-size="18.00">AC:{</text>
<text text-anchor="start" x="98.63" y="-228.86" font-family="Times,serif" font-size="18.00"> &#160;&quot;cost&quot; : 56</text>
<text text-anchor="start" x="98.63" y="-208.86" font-family="Times,serif" font-size="18.00"> &#160;&quot;danger&quot; : 3}</text>
</g>
<!-- D -->
<g id="node4" class="node">
<title>D</title>
<ellipse fill="white" stroke="green" stroke-width="1.7" cx="408.63" cy="-92.63" rx="92.76" ry="92.76"/>
<text text-anchor="start" x="340.12" y="-118.23" font-family="Times,serif" font-size="18.00">lab&#45;D:{</text>
<text text-anchor="start" x="345.12" y="-98.23" font-family="Times,serif" font-size="18.00"> &#160;&quot;money&quot; : 55</text>
<text text-anchor="start" x="345.12" y="-78.23" font-family="Times,serif" font-size="18.00"> &#160;&quot;age&quot; : 30</text>
<text text-anchor="start" x="345.12" y="-58.23" font-family="Times,serif" font-size="18.00"> &#160;&quot;weight&quot; : 39}</text>
</g>
<!-- B&#45;&gt;D -->
<g id="edge4" class="edge">
<title>B&#45;&gt;D</title>
<path fill="none" stroke="black" stroke-width="1.5" d="M314.95,-289.96C318.98,-280.99 322.95,-271.96 326.63,-263.26 337.77,-236.97 337.73,-229.22 349.63,-203.26 352.67,-196.64 355.92,-189.87 359.29,-183.09"/>
<polygon fill="black" stroke="black" stroke-width="1.5" points="362.57,-184.37 363.95,-173.87 356.32,-181.22 362.57,-184.37"/>
<text text-anchor="start" x="349.63" y="-248.86" font-family="Times,serif" font-size="18.00">AC:{</text>
<text text-anchor="start" x="354.63" y="-228.86" font-family="Times,serif" font-size="18.00"> &#160;&quot;cost&quot; : 56</text>
<text text-anchor="start" x="354.63" y="-208.86" font-family="Times,serif" font-size="18.00"> &#160;&quot;danger&quot; : 3}</text>
</g>
<!-- C&#45;&gt;B -->
<g id="edge5" class="edge">
<title>C&#45;&gt;B</title>
<path fill="none" stroke="black" stroke-width="1.5" d="M161.42,-154.97C175.15,-169.74 188.46,-186.21 198.63,-203.26 212.96,-227.29 206.82,-237.46 217.63,-263.26 220.4,-269.88 223.44,-276.64 226.62,-283.39"/>
<polygon fill="black" stroke="black" stroke-width="1.5" points="223.55,-285.07 231.04,-292.56 229.85,-282.03 223.55,-285.07"/>
<text text-anchor="start" x="217.63" y="-248.86" font-family="Times,serif" font-size="18.00">CB:{</text>
<text text-anchor="start" x="223.63" y="-228.86" font-family="Times,serif" font-size="18.00"> &#160;&quot;cost&quot; : 40</text>
<text text-anchor="start" x="223.63" y="-208.86" font-family="Times,serif" font-size="18.00"> &#160;&quot;danger&quot; : 5}</text>
</g>
<!-- D&#45;&gt;A -->
<g id="edge6" class="edge">
<title>D&#45;&gt;A</title>
<path fill="none" stroke="black" stroke-width="1.5" d="M447.54,-176.95C450.42,-185.69 452.88,-194.56 454.63,-203.26 485.04,-354.31 469.9,-410.65 393.63,-544.52 383.97,-561.49 370.79,-577.36 356.75,-591.46"/>
<polygon fill="black" stroke="black" stroke-width="1.5" points="354.06,-589.19 349.34,-598.67 358.94,-594.21 354.06,-589.19"/>
<text text-anchor="start" x="475.63" y="-389.49" font-family="Times,serif" font-size="18.00">AB:{</text>
<text text-anchor="start" x="480.63" y="-369.49" font-family="Times,serif" font-size="18.00"> &#160;&quot;cost&quot; : 68</text>
<text text-anchor="start" x="480.63" y="-349.49" font-family="Times,serif" font-size="18.00"> &#160;&quot;danger&quot; : 10}</text>
</g>
</g>
</svg>
