<?xml version="1.0" encoding="UTF-8" standalone="no"?>
<!DOCTYPE svg PUBLIC "-//W3C//DTD SVG 1.1//EN"
 "http://www.w3.org/Graphics/SVG/1.1/DTD/svg11.dtd">
<!-- Generated by graphviz version 2.43.0 (0)
 -->
<!-- Title: %3 Pages: 1 -->
<svg width="399pt" height="897pt"
 viewBox="0.00 0.00 399.02 897.30" xmlns="http://www.w3.org/2000/svg" xmlns:xlink="http://www.w3.org/1999/xlink">
<g id="graph0" class="graph" transform="scale(1 1) rotate(0) translate(4 893.3)">
<title>%3</title>
<polygon fill="white" stroke="transparent" points="-4,4 -4,-893.3 395.02,-893.3 395.02,4 -4,4"/>
<!-- D -->
<g id="node1" class="node">
<title>D</title>
<ellipse fill="white" stroke="green" stroke-width="2" cx="254.02" cy="-812.22" rx="77.15" ry="77.15"/>
<text text-anchor="start" x="196.14" y="-835.42" font-family="Times,serif" font-size="16.00">:lab&#45;D{</text>
<text text-anchor="start" x="196.14" y="-817.42" font-family="Times,serif" font-size="16.00">&quot;money&quot; : 55;</text>
<text text-anchor="start" x="196.14" y="-799.42" font-family="Times,serif" font-size="16.00">&quot;age&quot; : 30;</text>
<text text-anchor="middle" x="254.02" y="-781.42" font-family="Times,serif" font-size="16.00">&quot;weight&quot; : 39}</text>
</g>
<!-- A -->
<g id="node4" class="node">
<title>A</title>
<ellipse fill="white" stroke="green" stroke-width="2" cx="199.02" cy="-572.12" rx="82.05" ry="82.05"/>
<text text-anchor="start" x="135.41" y="-595.32" font-family="Times,serif" font-size="16.00">:lab&#45;A{</text>
<text text-anchor="start" x="135.41" y="-577.32" font-family="Times,serif" font-size="16.00">&quot;money&quot; : 100;</text>
<text text-anchor="start" x="135.41" y="-559.32" font-family="Times,serif" font-size="16.00">&quot;age&quot; : 21;</text>
<text text-anchor="middle" x="199.02" y="-541.32" font-family="Times,serif" font-size="16.00">&quot;weight&quot; : 50}</text>
</g>
<!-- D&#45;&gt;A -->
<g id="edge6" class="edge">
<title>D&#45;&gt;A</title>
<path fill="none" stroke="black" stroke-width="1.5" d="M221.84,-741.9C218.84,-733.68 216.13,-725.31 214.02,-717.15 209.69,-700.36 206.6,-682.17 204.4,-664.54"/>
<polygon fill="black" stroke="black" stroke-width="1.5" points="207.83,-663.77 203.2,-654.24 200.88,-664.58 207.83,-663.77"/>
<text text-anchor="start" x="214.02" y="-705.95" font-family="Times,serif" font-size="14.00">:AB{</text>
<text text-anchor="start" x="214.02" y="-690.95" font-family="Times,serif" font-size="14.00">&quot;cost&quot; : 68;</text>
<text text-anchor="middle" x="254.52" y="-675.95" font-family="Times,serif" font-size="14.00">&quot;danger&quot; : 10}</text>
</g>
<!-- C -->
<g id="node2" class="node">
<title>C</title>
<ellipse fill="white" stroke="green" stroke-width="2" cx="82.02" cy="-327.07" rx="82.05" ry="82.05"/>
<text text-anchor="start" x="18.41" y="-350.27" font-family="Times,serif" font-size="16.00">:lab&#45;C{</text>
<text text-anchor="start" x="18.41" y="-332.27" font-family="Times,serif" font-size="16.00">&quot;money&quot; : 270;</text>
<text text-anchor="start" x="18.41" y="-314.27" font-family="Times,serif" font-size="16.00">&quot;age&quot; : 18;</text>
<text text-anchor="middle" x="82.02" y="-296.27" font-family="Times,serif" font-size="16.00">&quot;weight&quot; : 48}</text>
</g>
<!-- B -->
<g id="node3" class="node">
<title>B</title>
<ellipse fill="white" stroke="green" stroke-width="2" cx="155.02" cy="-82.02" rx="82.05" ry="82.05"/>
<text text-anchor="start" x="91.41" y="-105.22" font-family="Times,serif" font-size="16.00">:lab&#45;B{</text>
<text text-anchor="start" x="91.41" y="-87.22" font-family="Times,serif" font-size="16.00">&quot;money&quot; : 380;</text>
<text text-anchor="start" x="91.41" y="-69.22" font-family="Times,serif" font-size="16.00">&quot;age&quot; : 30;</text>
<text text-anchor="middle" x="155.02" y="-51.22" font-family="Times,serif" font-size="16.00">&quot;weight&quot; : 64}</text>
</g>
<!-- C&#45;&gt;B -->
<g id="edge5" class="edge">
<title>C&#45;&gt;B</title>
<path fill="none" stroke="black" stroke-width="1.5" d="M31.8,-262.07C18.13,-236.76 10.22,-207.67 23.02,-182.05 34.28,-159.53 53.37,-140.8 73.58,-125.91"/>
<polygon fill="black" stroke="black" stroke-width="1.5" points="75.84,-128.61 81.98,-119.98 71.8,-122.89 75.84,-128.61"/>
<text text-anchor="start" x="23.02" y="-215.85" font-family="Times,serif" font-size="14.00">:CB{</text>
<text text-anchor="start" x="23.02" y="-200.85" font-family="Times,serif" font-size="14.00">&quot;cost&quot; : 40;</text>
<text text-anchor="middle" x="60.02" y="-185.85" font-family="Times,serif" font-size="14.00">&quot;danger&quot; : 5}</text>
</g>
<!-- B&#45;&gt;D -->
<g id="edge4" class="edge">
<title>B&#45;&gt;D</title>
<path fill="none" stroke="black" stroke-width="1.5" d="M215.7,-137.64C243.31,-166.53 273.1,-204.39 288.02,-245.05 353.45,-423.26 293.47,-482.31 295.02,-672.15 295.19,-692.15 299.11,-697.57 295.02,-717.15 293.92,-722.43 292.51,-727.79 290.87,-733.12"/>
<polygon fill="black" stroke="black" stroke-width="1.5" points="287.52,-732.08 287.69,-742.67 294.17,-734.28 287.52,-732.08"/>
<text text-anchor="start" x="317.02" y="-460.9" font-family="Times,serif" font-size="14.00">:AC{</text>
<text text-anchor="start" x="317.02" y="-445.9" font-family="Times,serif" font-size="14.00">&quot;cost&quot; : 56;</text>
<text text-anchor="middle" x="354.02" y="-430.9" font-family="Times,serif" font-size="14.00">&quot;danger&quot; : 3}</text>
</g>
<!-- B&#45;&gt;C -->
<g id="edge3" class="edge">
<title>B&#45;&gt;C</title>
<path fill="none" stroke="black" stroke-width="1.5" d="M121.07,-156.75C117.76,-165.19 114.66,-173.74 112.02,-182.05 106.55,-199.3 101.8,-218.04 97.8,-236.12"/>
<polygon fill="black" stroke="black" stroke-width="1.5" points="94.34,-235.57 95.66,-246.08 101.18,-237.04 94.34,-235.57"/>
<text text-anchor="start" x="112.02" y="-215.85" font-family="Times,serif" font-size="14.00">:AC{</text>
<text text-anchor="start" x="112.02" y="-200.85" font-family="Times,serif" font-size="14.00">&quot;cost&quot; : 56;</text>
<text text-anchor="middle" x="149.02" y="-185.85" font-family="Times,serif" font-size="14.00">&quot;danger&quot; : 3}</text>
</g>
<!-- A&#45;&gt;C -->
<g id="edge2" class="edge">
<title>A&#45;&gt;C</title>
<path fill="none" stroke="black" stroke-width="1.5" d="M140.43,-514.31C129.63,-501.32 119.44,-486.94 112.02,-472.1 103.76,-455.54 97.76,-436.81 93.42,-418.47"/>
<polygon fill="black" stroke="black" stroke-width="1.5" points="96.82,-417.64 91.24,-408.63 89.99,-419.15 96.82,-417.64"/>
<text text-anchor="start" x="112.02" y="-460.9" font-family="Times,serif" font-size="14.00">:AC{</text>
<text text-anchor="start" x="112.02" y="-445.9" font-family="Times,serif" font-size="14.00">&quot;cost&quot; : 56;</text>
<text text-anchor="middle" x="149.02" y="-430.9" font-family="Times,serif" font-size="14.00">&quot;danger&quot; : 3}</text>
</g>
<!-- A&#45;&gt;B -->
<g id="edge1" class="edge">
<title>A&#45;&gt;B</title>
<path fill="none" stroke="black" stroke-width="1.5" d="M202.64,-490.01C204.68,-410.86 203.92,-287.32 186.02,-182.05 185.33,-177.95 184.51,-173.79 183.59,-169.61"/>
<polygon fill="black" stroke="black" stroke-width="1.5" points="186.98,-168.76 181.27,-159.83 180.17,-170.37 186.98,-168.76"/>
<text text-anchor="start" x="203.02" y="-338.37" font-family="Times,serif" font-size="14.00">:AB{</text>
<text text-anchor="start" x="203.02" y="-323.37" font-family="Times,serif" font-size="14.00">&quot;cost&quot; : 68;</text>
<text text-anchor="middle" x="243.52" y="-308.37" font-family="Times,serif" font-size="14.00">&quot;danger&quot; : 10}</text>
</g>
</g>
</svg>
