<?xml version="1.0" encoding="UTF-8" standalone="no"?>
<!DOCTYPE svg PUBLIC "-//W3C//DTD SVG 1.1//EN"
 "http://www.w3.org/Graphics/SVG/1.1/DTD/svg11.dtd">
<!-- Generated by graphviz version 2.43.0 (0)
 -->
<!-- Title: %3 Pages: 1 -->
<svg width="593pt" height="573pt"
 viewBox="0.00 0.00 592.63 573.35" xmlns="http://www.w3.org/2000/svg" xmlns:xlink="http://www.w3.org/1999/xlink">
<g id="graph0" class="graph" transform="scale(1 1) rotate(0) translate(4 569.35)">
<title>%3</title>
<polygon fill="white" stroke="transparent" points="-4,4 -4,-569.35 588.63,-569.35 588.63,4 -4,4"/>
<!-- A -->
<g id="node1" class="node">
<title>A</title>
<ellipse fill="grey" stroke="blue" stroke-width="2" cx="275.63" cy="-503.13" rx="92.76" ry="62.45"/>
<text text-anchor="start" x="218.13" y="-528.73" font-family="Times,serif" font-size="18.00">lab&#45;A:{</text>
<text text-anchor="start" x="218.13" y="-508.73" font-family="Times,serif" font-size="18.00"> &#160;&quot;money&quot; : 100</text>
<text text-anchor="start" x="218.13" y="-488.73" font-family="Times,serif" font-size="18.00"> &#160;&quot;age&quot; : 21</text>
<text text-anchor="middle" x="275.63" y="-468.73" font-family="Times,serif" font-size="18.00"> &#160;&quot;weight&quot; : 50}</text>
</g>
<!-- B -->
<g id="node2" class="node">
<title>B</title>
<ellipse fill="grey" stroke="blue" stroke-width="2" cx="275.63" cy="-282.68" rx="92.76" ry="62.45"/>
<text text-anchor="start" x="218.13" y="-308.28" font-family="Times,serif" font-size="18.00">lab&#45;B:{</text>
<text text-anchor="start" x="218.13" y="-288.28" font-family="Times,serif" font-size="18.00"> &#160;&quot;money&quot; : 380</text>
<text text-anchor="start" x="218.13" y="-268.28" font-family="Times,serif" font-size="18.00"> &#160;&quot;age&quot; : 30</text>
<text text-anchor="middle" x="275.63" y="-248.28" font-family="Times,serif" font-size="18.00"> &#160;&quot;weight&quot; : 64}</text>
</g>
<!-- A&#45;&gt;B -->
<g id="edge1" class="edge">
<title>A&#45;&gt;B</title>
<path fill="none" stroke="black" stroke-width="1.5" d="M275.63,-440.69C275.63,-414.06 275.63,-382.7 275.63,-355.03"/>
<polygon fill="black" stroke="black" stroke-width="1.5" points="279.13,-355.03 275.63,-345.03 272.13,-355.03 279.13,-355.03"/>
<text text-anchor="start" x="275.63" y="-408.5" font-family="Times,serif" font-size="18.00">AB:{</text>
<text text-anchor="start" x="275.63" y="-388.5" font-family="Times,serif" font-size="18.00"> &#160;&quot;cost&quot; : 68</text>
<text text-anchor="middle" x="332.63" y="-368.5" font-family="Times,serif" font-size="18.00"> &#160;&quot;danger&quot; : 10}</text>
</g>
<!-- C -->
<g id="node3" class="node">
<title>C</title>
<ellipse fill="grey" stroke="blue" stroke-width="2" cx="92.63" cy="-62.23" rx="92.76" ry="62.45"/>
<text text-anchor="start" x="35.13" y="-87.83" font-family="Times,serif" font-size="18.00">lab&#45;C:{</text>
<text text-anchor="start" x="35.13" y="-67.83" font-family="Times,serif" font-size="18.00"> &#160;&quot;money&quot; : 270</text>
<text text-anchor="start" x="35.13" y="-47.83" font-family="Times,serif" font-size="18.00"> &#160;&quot;age&quot; : 18</text>
<text text-anchor="middle" x="92.63" y="-27.83" font-family="Times,serif" font-size="18.00"> &#160;&quot;weight&quot; : 48}</text>
</g>
<!-- A&#45;&gt;C -->
<g id="edge2" class="edge">
<title>A&#45;&gt;C</title>
<path fill="none" stroke="black" stroke-width="1.5" d="M199.8,-467.12C152.63,-440.82 95.91,-399.88 68.63,-344.9 35.57,-278.27 50.07,-191.8 67.4,-132.34"/>
<polygon fill="black" stroke="black" stroke-width="1.5" points="70.78,-133.26 70.31,-122.67 64.08,-131.24 70.78,-133.26"/>
<text text-anchor="start" x="68.63" y="-298.28" font-family="Times,serif" font-size="18.00">AC:{</text>
<text text-anchor="start" x="68.63" y="-278.28" font-family="Times,serif" font-size="18.00"> &#160;&quot;cost&quot; : 56</text>
<text text-anchor="middle" x="121.13" y="-258.28" font-family="Times,serif" font-size="18.00"> &#160;&quot;danger&quot; : 3}</text>
</g>
<!-- B&#45;&gt;C -->
<g id="edge3" class="edge">
<title>B&#45;&gt;C</title>
<path fill="none" stroke="black" stroke-width="1.5" d="M208.58,-239.48C195.64,-232.45 181.96,-225.74 168.63,-220.45 136.77,-207.81 114.95,-229.29 93.63,-202.45 78.57,-183.49 75.14,-158.04 76.55,-134.09"/>
<polygon fill="black" stroke="black" stroke-width="1.5" points="80.06,-134.21 77.43,-123.95 73.08,-133.61 80.06,-134.21"/>
<text text-anchor="start" x="93.63" y="-188.05" font-family="Times,serif" font-size="18.00">AC:{</text>
<text text-anchor="start" x="93.63" y="-168.05" font-family="Times,serif" font-size="18.00"> &#160;&quot;cost&quot; : 56</text>
<text text-anchor="middle" x="146.13" y="-148.05" font-family="Times,serif" font-size="18.00"> &#160;&quot;danger&quot; : 3}</text>
</g>
<!-- D -->
<g id="node4" class="node">
<title>D</title>
<ellipse fill="grey" stroke="blue" stroke-width="2" cx="408.63" cy="-62.23" rx="92.76" ry="62.45"/>
<text text-anchor="start" x="351.13" y="-87.83" font-family="Times,serif" font-size="18.00">lab&#45;D:{</text>
<text text-anchor="start" x="351.13" y="-67.83" font-family="Times,serif" font-size="18.00"> &#160;&quot;money&quot; : 55</text>
<text text-anchor="start" x="351.13" y="-47.83" font-family="Times,serif" font-size="18.00"> &#160;&quot;age&quot; : 30</text>
<text text-anchor="middle" x="408.63" y="-27.83" font-family="Times,serif" font-size="18.00"> &#160;&quot;weight&quot; : 39}</text>
</g>
<!-- B&#45;&gt;D -->
<g id="edge4" class="edge">
<title>B&#45;&gt;D</title>
<path fill="none" stroke="black" stroke-width="1.5" d="M313.59,-225.82C318.23,-218.11 322.71,-210.18 326.63,-202.45 339.54,-176.98 335.86,-167.47 349.63,-142.45 352.67,-136.93 356.05,-131.36 359.62,-125.87"/>
<polygon fill="black" stroke="black" stroke-width="1.5" points="362.68,-127.58 365.34,-117.33 356.87,-123.69 362.68,-127.58"/>
<text text-anchor="start" x="349.63" y="-188.05" font-family="Times,serif" font-size="18.00">AC:{</text>
<text text-anchor="start" x="349.63" y="-168.05" font-family="Times,serif" font-size="18.00"> &#160;&quot;cost&quot; : 56</text>
<text text-anchor="middle" x="402.13" y="-148.05" font-family="Times,serif" font-size="18.00"> &#160;&quot;danger&quot; : 3}</text>
</g>
<!-- C&#45;&gt;B -->
<g id="edge5" class="edge">
<title>C&#45;&gt;B</title>
<path fill="none" stroke="black" stroke-width="1.5" d="M160.88,-104.32C174.89,-115.28 188.45,-128.12 198.63,-142.45 214.83,-165.25 204.98,-177.5 217.63,-202.45 220.41,-207.94 223.56,-213.45 226.92,-218.88"/>
<polygon fill="black" stroke="black" stroke-width="1.5" points="224,-220.8 232.35,-227.31 229.89,-217.01 224,-220.8"/>
<text text-anchor="start" x="217.63" y="-188.05" font-family="Times,serif" font-size="18.00">CB:{</text>
<text text-anchor="start" x="217.63" y="-168.05" font-family="Times,serif" font-size="18.00"> &#160;&quot;cost&quot; : 40</text>
<text text-anchor="middle" x="270.13" y="-148.05" font-family="Times,serif" font-size="18.00"> &#160;&quot;danger&quot; : 5}</text>
</g>
<!-- D&#45;&gt;A -->
<g id="edge6" class="edge">
<title>D&#45;&gt;A</title>
<path fill="none" stroke="black" stroke-width="1.5" d="M446.04,-119.65C449.55,-127.07 452.56,-134.77 454.63,-142.45 487.8,-265.62 468.24,-319.44 393.63,-422.9 383.74,-436.62 370.68,-448.67 356.87,-458.97"/>
<polygon fill="black" stroke="black" stroke-width="1.5" points="354.77,-456.17 348.66,-464.83 358.84,-461.86 354.77,-456.17"/>
<text text-anchor="start" x="470.63" y="-298.28" font-family="Times,serif" font-size="18.00">AB:{</text>
<text text-anchor="start" x="470.63" y="-278.28" font-family="Times,serif" font-size="18.00"> &#160;&quot;cost&quot; : 68</text>
<text text-anchor="middle" x="527.63" y="-258.28" font-family="Times,serif" font-size="18.00"> &#160;&quot;danger&quot; : 10}</text>
</g>
</g>
</svg>
