<?xml version="1.0" encoding="UTF-8" standalone="no"?>
<!DOCTYPE svg PUBLIC "-//W3C//DTD SVG 1.1//EN"
 "http://www.w3.org/Graphics/SVG/1.1/DTD/svg11.dtd">
<!-- Generated by graphviz version 2.43.0 (0)
 -->
<!-- Title: %3 Pages: 1 -->
<svg width="217pt" height="276pt"
 viewBox="0.00 0.00 216.63 275.76" xmlns="http://www.w3.org/2000/svg" xmlns:xlink="http://www.w3.org/1999/xlink">
<g id="graph0" class="graph" transform="scale(1 1) rotate(0) translate(4 271.76)">
<title>%3</title>
<polygon fill="white" stroke="transparent" points="-4,4 -4,-271.76 212.63,-271.76 212.63,4 -4,4"/>
<!-- D -->
<g id="node1" class="node">
<title>D</title>
<ellipse fill="white" stroke="green" stroke-width="2" cx="22.63" cy="-245.14" rx="22.76" ry="22.76"/>
<text text-anchor="middle" x="22.63" y="-241.34" font-family="Times,serif" font-size="16.00">:D</text>
</g>
<!-- C -->
<g id="node2" class="node">
<title>C</title>
<ellipse fill="white" stroke="green" stroke-width="2" cx="23.63" cy="-22.63" rx="22.76" ry="22.76"/>
<text text-anchor="middle" x="23.63" y="-18.83" font-family="Times,serif" font-size="16.00">:C</text>
</g>
<!-- D&#45;&gt;C -->
<g id="edge5" class="edge">
<title>D&#45;&gt;C</title>
<path fill="none" stroke="black" stroke-width="1.5" d="M21.54,-222.5C20.35,-196.2 18.73,-150.47 19.63,-111.25 20.05,-92.77 20.97,-72.11 21.82,-55.5"/>
<polygon fill="black" stroke="black" stroke-width="1.5" points="25.33,-55.4 22.37,-45.22 18.34,-55.03 25.33,-55.4"/>
<text text-anchor="start" x="19.63" y="-137.68" font-family="Times,serif" font-size="14.00"> : {</text>
<text text-anchor="middle" x="46.63" y="-122.68" font-family="Times,serif" font-size="14.00">cost : 34}</text>
</g>
<!-- A -->
<g id="node4" class="node">
<title>A</title>
<ellipse fill="white" stroke="green" stroke-width="2" cx="105.63" cy="-133.88" rx="22.76" ry="22.76"/>
<text text-anchor="middle" x="105.63" y="-130.08" font-family="Times,serif" font-size="16.00">:A</text>
</g>
<!-- D&#45;&gt;A -->
<g id="edge4" class="edge">
<title>D&#45;&gt;A</title>
<path fill="none" stroke="black" stroke-width="1.5" d="M35.96,-226.58C49.52,-208.74 70.66,-180.92 86.1,-160.59"/>
<polygon fill="black" stroke="black" stroke-width="1.5" points="89.06,-162.47 92.33,-152.39 83.49,-158.24 89.06,-162.47"/>
<text text-anchor="start" x="74.63" y="-193.31" font-family="Times,serif" font-size="14.00"> : {</text>
<text text-anchor="middle" x="98.13" y="-178.31" font-family="Times,serif" font-size="14.00">cost : 8}</text>
</g>
<!-- B -->
<g id="node3" class="node">
<title>B</title>
<ellipse fill="white" stroke="green" stroke-width="2" cx="144.63" cy="-22.63" rx="22.76" ry="22.76"/>
<text text-anchor="middle" x="144.63" y="-18.83" font-family="Times,serif" font-size="16.00">:B</text>
</g>
<!-- B&#45;&gt;A -->
<g id="edge3" class="edge">
<title>B&#45;&gt;A</title>
<path fill="none" stroke="black" stroke-width="1.5" d="M154.55,-43.14C160.46,-57.62 165.43,-77.5 157.63,-93.25 152.59,-103.43 143.55,-111.7 134.4,-118.01"/>
<polygon fill="black" stroke="black" stroke-width="1.5" points="132.34,-115.17 125.73,-123.45 136.06,-121.1 132.34,-115.17"/>
<text text-anchor="start" x="161.63" y="-82.05" font-family="Times,serif" font-size="14.00"> : {</text>
<text text-anchor="middle" x="185.13" y="-67.05" font-family="Times,serif" font-size="14.00">cost : 3}</text>
</g>
<!-- A&#45;&gt;C -->
<g id="edge2" class="edge">
<title>A&#45;&gt;C</title>
<path fill="none" stroke="black" stroke-width="1.5" d="M86.16,-121.93C75.12,-114.92 61.73,-104.95 52.63,-93.25 43.74,-81.84 37.12,-67.31 32.47,-54.48"/>
<polygon fill="black" stroke="black" stroke-width="1.5" points="35.67,-53.01 29.16,-44.65 29.03,-55.25 35.67,-53.01"/>
<text text-anchor="start" x="52.63" y="-82.05" font-family="Times,serif" font-size="14.00"> : {</text>
<text text-anchor="middle" x="76.13" y="-67.05" font-family="Times,serif" font-size="14.00">cost : 4}</text>
</g>
<!-- A&#45;&gt;B -->
<g id="edge1" class="edge">
<title>A&#45;&gt;B</title>
<path fill="none" stroke="black" stroke-width="1.5" d="M103.75,-111.06C103.35,-96.92 104.4,-78.38 110.63,-63.25 113.16,-57.09 117.05,-51.2 121.29,-45.94"/>
<polygon fill="black" stroke="black" stroke-width="1.5" points="124.11,-48.03 128.12,-38.22 118.87,-43.39 124.11,-48.03"/>
<text text-anchor="start" x="110.63" y="-82.05" font-family="Times,serif" font-size="14.00"> : {</text>
<text text-anchor="middle" x="134.13" y="-67.05" font-family="Times,serif" font-size="14.00">cost : 1}</text>
</g>
</g>
</svg>
