<?xml version="1.0" encoding="UTF-8" standalone="no"?>
<!DOCTYPE svg PUBLIC "-//W3C//DTD SVG 1.1//EN"
 "http://www.w3.org/Graphics/SVG/1.1/DTD/svg11.dtd">
<!-- Generated by graphviz version 2.43.0 (0)
 -->
<!-- Title: %3 Pages: 1 -->
<svg width="428pt" height="279pt"
 viewBox="0.00 0.00 428.31 279.20" xmlns="http://www.w3.org/2000/svg" xmlns:xlink="http://www.w3.org/1999/xlink">
<g id="graph0" class="graph" transform="scale(1 1) rotate(0) translate(4 275.2)">
<title>%3</title>
<polygon fill="white" stroke="transparent" points="-4,4 -4,-275.2 424.31,-275.2 424.31,4 -4,4"/>
<!-- A -->
<g id="node1" class="node">
<title>A</title>
<ellipse fill="grey" stroke="blue" stroke-width="2" cx="142.31" cy="-135.6" rx="27" ry="19.6"/>
<text text-anchor="middle" x="142.31" y="-131.2" font-family="Times,serif" font-size="18.00">A</text>
</g>
<!-- B -->
<g id="node2" class="node">
<title>B</title>
<ellipse fill="grey" stroke="blue" stroke-width="2" cx="61.31" cy="-19.8" rx="27" ry="19.6"/>
<text text-anchor="middle" x="61.31" y="-15.4" font-family="Times,serif" font-size="18.00">B</text>
</g>
<!-- A&#45;&gt;B -->
<g id="edge1" class="edge">
<title>A&#45;&gt;B</title>
<path fill="none" stroke="black" stroke-width="1.5" d="M115.71,-131.13C80.24,-125.9 20.39,-114.75 7.31,-97.6 -3.47,-83.46 -1,-73.31 7.31,-57.6 12.2,-48.35 20.58,-40.98 29.3,-35.35"/>
<polygon fill="black" stroke="black" stroke-width="1.5" points="31.13,-38.34 38.01,-30.29 27.61,-32.28 31.13,-38.34"/>
<text text-anchor="start" x="7.31" y="-83.2" font-family="Times,serif" font-size="18.00">data:{</text>
<text text-anchor="middle" x="50.31" y="-63.2" font-family="Times,serif" font-size="18.00"> &#160;&quot;cost&quot; : 1}</text>
</g>
<!-- C -->
<g id="node3" class="node">
<title>C</title>
<ellipse fill="grey" stroke="blue" stroke-width="2" cx="274.31" cy="-19.8" rx="27" ry="19.6"/>
<text text-anchor="middle" x="274.31" y="-15.4" font-family="Times,serif" font-size="18.00">C</text>
</g>
<!-- A&#45;&gt;C -->
<g id="edge2" class="edge">
<title>A&#45;&gt;C</title>
<path fill="none" stroke="black" stroke-width="1.5" d="M164.71,-124.23C176.88,-117.8 191.58,-108.67 202.31,-97.6 216.59,-82.88 211.73,-72.96 225.31,-57.6 231.29,-50.84 238.69,-44.52 245.9,-39.09"/>
<polygon fill="black" stroke="black" stroke-width="1.5" points="248.11,-41.82 254.2,-33.15 244.03,-36.13 248.11,-41.82"/>
<text text-anchor="start" x="225.31" y="-83.2" font-family="Times,serif" font-size="18.00">data:{</text>
<text text-anchor="middle" x="268.31" y="-63.2" font-family="Times,serif" font-size="18.00"> &#160;&quot;cost&quot; : 4}</text>
</g>
<!-- B&#45;&gt;A -->
<g id="edge3" class="edge">
<title>B&#45;&gt;A</title>
<path fill="none" stroke="black" stroke-width="1.5" d="M76.36,-36.73C81.97,-43.01 88.21,-50.43 93.31,-57.6 105.21,-74.3 105.3,-80.3 116.31,-97.6 118.8,-101.5 121.52,-105.57 124.24,-109.52"/>
<polygon fill="black" stroke="black" stroke-width="1.5" points="121.48,-111.68 130.08,-117.87 127.21,-107.67 121.48,-111.68"/>
<text text-anchor="start" x="116.31" y="-83.2" font-family="Times,serif" font-size="18.00">data:{</text>
<text text-anchor="middle" x="159.31" y="-63.2" font-family="Times,serif" font-size="18.00"> &#160;&quot;cost&quot; : 3}</text>
</g>
<!-- D -->
<g id="node4" class="node">
<title>D</title>
<ellipse fill="grey" stroke="blue" stroke-width="2" cx="220.31" cy="-251.4" rx="27" ry="19.6"/>
<text text-anchor="middle" x="220.31" y="-247" font-family="Times,serif" font-size="18.00">D</text>
</g>
<!-- D&#45;&gt;A -->
<g id="edge4" class="edge">
<title>D&#45;&gt;A</title>
<path fill="none" stroke="black" stroke-width="1.5" d="M208.47,-233.11C195.51,-214.21 174.6,-183.71 159.77,-162.06"/>
<polygon fill="black" stroke="black" stroke-width="1.5" points="162.56,-159.94 154.02,-153.67 156.78,-163.9 162.56,-159.94"/>
<text text-anchor="start" x="194.31" y="-199.2" font-family="Times,serif" font-size="18.00">data:{</text>
<text text-anchor="middle" x="237.31" y="-179.2" font-family="Times,serif" font-size="18.00"> &#160;&quot;cost&quot; : 8}</text>
</g>
<!-- D&#45;&gt;C -->
<g id="edge5" class="edge">
<title>D&#45;&gt;C</title>
<path fill="none" stroke="black" stroke-width="1.5" d="M244.34,-242.15C258.03,-236.25 274.38,-226.97 284.31,-213.6 326.27,-157.11 338.33,-122.57 311.31,-57.6 308.91,-51.81 305.1,-46.46 300.82,-41.74"/>
<polygon fill="black" stroke="black" stroke-width="1.5" points="302.94,-38.92 293.35,-34.42 298.04,-43.92 302.94,-38.92"/>
<text text-anchor="start" x="325.31" y="-141.2" font-family="Times,serif" font-size="18.00">data:{</text>
<text text-anchor="middle" x="372.81" y="-121.2" font-family="Times,serif" font-size="18.00"> &#160;&quot;cost&quot; : 34}</text>
</g>
</g>
</svg>
