<?xml version="1.0" encoding="UTF-8" standalone="no"?>
<!DOCTYPE svg PUBLIC "-//W3C//DTD SVG 1.1//EN"
 "http://www.w3.org/Graphics/SVG/1.1/DTD/svg11.dtd">
<!-- Generated by graphviz version 2.43.0 (0)
 -->
<!-- Title: %3 Pages: 1 -->
<svg width="412pt" height="304pt"
 viewBox="0.00 0.00 412.10 304.25" xmlns="http://www.w3.org/2000/svg" xmlns:xlink="http://www.w3.org/1999/xlink">
<g id="graph0" class="graph" transform="scale(1 1) rotate(0) translate(4 300.25)">
<title>%3</title>
<polygon fill="white" stroke="transparent" points="-4,4 -4,-300.25 408.1,-300.25 408.1,4 -4,4"/>
<!-- A -->
<g id="node1" class="node">
<title>A</title>
<ellipse fill="white" stroke="green" stroke-width="2" cx="142.1" cy="-148.12" rx="24.08" ry="24.08"/>
<text text-anchor="middle" x="142.1" y="-141.92" font-family="Times,serif" font-size="24.00">A</text>
</g>
<!-- B -->
<g id="node2" class="node">
<title>B</title>
<ellipse fill="white" stroke="green" stroke-width="2" cx="61.1" cy="-24.04" rx="24.08" ry="24.08"/>
<text text-anchor="middle" x="61.1" y="-17.84" font-family="Times,serif" font-size="24.00">B</text>
</g>
<!-- A&#45;&gt;B -->
<g id="edge1" class="edge">
<title>A&#45;&gt;B</title>
<path fill="none" stroke="black" stroke-width="1.5" d="M118.04,-147.75C86.65,-147.09 32.7,-140.62 7.1,-106.08 -3.49,-91.8 -0.8,-82.01 7.1,-66.08 12.31,-55.58 21.63,-47.04 31.08,-40.53"/>
<polygon fill="black" stroke="black" stroke-width="1.5" points="33.08,-43.4 39.68,-35.12 29.35,-37.48 33.08,-43.4"/>
<text text-anchor="start" x="7.1" y="-91.68" font-family="Times,serif" font-size="18.00">data:{</text>
<text text-anchor="middle" x="50.1" y="-71.68" font-family="Times,serif" font-size="18.00"> &#160;&quot;cost&quot; : 1}</text>
</g>
<!-- C -->
<g id="node3" class="node">
<title>C</title>
<ellipse fill="white" stroke="green" stroke-width="2" cx="274.1" cy="-24.04" rx="24.08" ry="24.08"/>
<text text-anchor="middle" x="274.1" y="-17.84" font-family="Times,serif" font-size="24.00">C</text>
</g>
<!-- A&#45;&gt;C -->
<g id="edge2" class="edge">
<title>A&#45;&gt;C</title>
<path fill="none" stroke="black" stroke-width="1.5" d="M163.02,-136.01C175.43,-128.68 190.87,-118.22 202.1,-106.08 216.02,-91.03 211.93,-81.8 225.1,-66.08 231.38,-58.59 239.15,-51.39 246.63,-45.17"/>
<polygon fill="black" stroke="black" stroke-width="1.5" points="248.92,-47.82 254.55,-38.84 244.55,-42.35 248.92,-47.82"/>
<text text-anchor="start" x="225.1" y="-91.68" font-family="Times,serif" font-size="18.00">data:{</text>
<text text-anchor="middle" x="268.1" y="-71.68" font-family="Times,serif" font-size="18.00"> &#160;&quot;cost&quot; : 4}</text>
</g>
<!-- B&#45;&gt;A -->
<g id="edge3" class="edge">
<title>B&#45;&gt;A</title>
<path fill="none" stroke="black" stroke-width="1.5" d="M76,-43.02C81.59,-50.05 87.86,-58.29 93.1,-66.08 104.54,-83.1 105.5,-88.53 116.1,-106.08 118.64,-110.28 121.36,-114.7 124.06,-119.01"/>
<polygon fill="black" stroke="black" stroke-width="1.5" points="121.2,-121.02 129.5,-127.61 127.12,-117.28 121.2,-121.02"/>
<text text-anchor="start" x="116.1" y="-91.68" font-family="Times,serif" font-size="18.00">data:{</text>
<text text-anchor="middle" x="159.1" y="-71.68" font-family="Times,serif" font-size="18.00"> &#160;&quot;cost&quot; : 3}</text>
</g>
<!-- D -->
<g id="node4" class="node">
<title>D</title>
<ellipse fill="white" stroke="green" stroke-width="2" cx="220.1" cy="-272.21" rx="24.08" ry="24.08"/>
<text text-anchor="middle" x="220.1" y="-266.01" font-family="Times,serif" font-size="24.00">D</text>
</g>
<!-- D&#45;&gt;A -->
<g id="edge4" class="edge">
<title>D&#45;&gt;A</title>
<path fill="none" stroke="black" stroke-width="1.5" d="M207.57,-251.59C194.72,-231.48 174.61,-200.01 160.07,-177.25"/>
<polygon fill="black" stroke="black" stroke-width="1.5" points="162.93,-175.23 154.6,-168.69 157.04,-179 162.93,-175.23"/>
<text text-anchor="start" x="192.1" y="-215.77" font-family="Times,serif" font-size="18.00">data:{</text>
<text text-anchor="middle" x="235.1" y="-195.77" font-family="Times,serif" font-size="18.00"> &#160;&quot;cost&quot; : 8}</text>
</g>
<!-- D&#45;&gt;C -->
<g id="edge5" class="edge">
<title>D&#45;&gt;C</title>
<path fill="none" stroke="black" stroke-width="1.5" d="M241.89,-261.96C255.45,-255.1 272.15,-244.47 282.1,-230.17 314.44,-183.68 304.61,-162.34 311.1,-106.08 313.14,-88.42 317.48,-82.68 311.1,-66.08 308.51,-59.34 304.25,-53.02 299.52,-47.45"/>
<polygon fill="black" stroke="black" stroke-width="1.5" points="301.79,-44.76 292.39,-39.87 296.69,-49.55 301.79,-44.76"/>
<text text-anchor="start" x="309.1" y="-153.72" font-family="Times,serif" font-size="18.00">data:{</text>
<text text-anchor="middle" x="356.6" y="-133.72" font-family="Times,serif" font-size="18.00"> &#160;&quot;cost&quot; : 34}</text>
</g>
</g>
</svg>
