<?xml version="1.0" encoding="UTF-8" standalone="no"?>
<!DOCTYPE svg PUBLIC "-//W3C//DTD SVG 1.1//EN"
 "http://www.w3.org/Graphics/SVG/1.1/DTD/svg11.dtd">
<!-- Generated by graphviz version 2.43.0 (0)
 -->
<!-- Title: %3 Pages: 1 -->
<svg width="478pt" height="909pt"
 viewBox="0.00 0.00 478.17 908.52" xmlns="http://www.w3.org/2000/svg" xmlns:xlink="http://www.w3.org/1999/xlink">
<g id="graph0" class="graph" transform="scale(1 1) rotate(0) translate(4 904.52)">
<title>%3</title>
<polygon fill="white" stroke="transparent" points="-4,4 -4,-904.52 474.17,-904.52 474.17,4 -4,4"/>
<!-- A -->
<g id="node1" class="node">
<title>A</title>
<ellipse fill="white" stroke="green" stroke-width="2" cx="172.09" cy="-782.43" rx="118.17" ry="118.17"/>
<text text-anchor="start" x="76.12" y="-815.23" font-family="Times,serif" font-size="24.00">lab&#45;A:{</text>
<text text-anchor="start" x="76.12" y="-789.23" font-family="Times,serif" font-size="24.00"> &#160;&quot;money&quot; : 100</text>
<text text-anchor="start" x="76.12" y="-763.23" font-family="Times,serif" font-size="24.00"> &#160;&quot;age&quot; : 21</text>
<text text-anchor="middle" x="172.09" y="-737.23" font-family="Times,serif" font-size="24.00"> &#160;&quot;weight&quot; : 50}</text>
</g>
<!-- B -->
<g id="node2" class="node">
<title>B</title>
<ellipse fill="white" stroke="green" stroke-width="2" cx="118.09" cy="-118.09" rx="118.17" ry="118.17"/>
<text text-anchor="start" x="22.12" y="-150.89" font-family="Times,serif" font-size="24.00">lab&#45;B:{</text>
<text text-anchor="start" x="22.12" y="-124.89" font-family="Times,serif" font-size="24.00"> &#160;&quot;money&quot; : 380</text>
<text text-anchor="start" x="22.12" y="-98.89" font-family="Times,serif" font-size="24.00"> &#160;&quot;age&quot; : 30</text>
<text text-anchor="middle" x="118.09" y="-72.89" font-family="Times,serif" font-size="24.00"> &#160;&quot;weight&quot; : 64}</text>
</g>
<!-- A&#45;&gt;B -->
<g id="edge1" class="edge">
<title>A&#45;&gt;B</title>
<path fill="none" stroke="black" stroke-width="1.5" d="M133.99,-670.45C124.57,-637.95 115.82,-602.07 111.09,-568.35 95.94,-460.38 99.42,-336.4 105.7,-246.07"/>
<polygon fill="black" stroke="black" stroke-width="1.5" points="109.19,-246.28 106.42,-236.05 102.21,-245.78 109.19,-246.28"/>
<text text-anchor="start" x="111.09" y="-465.86" font-family="Times,serif" font-size="18.00">AB:{</text>
<text text-anchor="start" x="111.09" y="-445.86" font-family="Times,serif" font-size="18.00"> &#160;&quot;cost&quot; : 68</text>
<text text-anchor="middle" x="168.09" y="-425.86" font-family="Times,serif" font-size="18.00"> &#160;&quot;danger&quot; : 10}</text>
</g>
<!-- C -->
<g id="node3" class="node">
<title>C</title>
<ellipse fill="white" stroke="green" stroke-width="2" cx="352.09" cy="-450.26" rx="118.17" ry="118.17"/>
<text text-anchor="start" x="256.12" y="-483.06" font-family="Times,serif" font-size="24.00">lab&#45;C:{</text>
<text text-anchor="start" x="256.12" y="-457.06" font-family="Times,serif" font-size="24.00"> &#160;&quot;money&quot; : 270</text>
<text text-anchor="start" x="256.12" y="-431.06" font-family="Times,serif" font-size="24.00"> &#160;&quot;age&quot; : 18</text>
<text text-anchor="middle" x="352.09" y="-405.06" font-family="Times,serif" font-size="24.00"> &#160;&quot;weight&quot; : 48}</text>
</g>
<!-- A&#45;&gt;C -->
<g id="edge2" class="edge">
<title>A&#45;&gt;C</title>
<path fill="none" stroke="black" stroke-width="1.5" d="M228.3,-678.32C248.21,-641.8 270.7,-600.54 291,-563.31"/>
<polygon fill="black" stroke="black" stroke-width="1.5" points="294.12,-564.9 295.84,-554.44 287.98,-561.55 294.12,-564.9"/>
<text text-anchor="start" x="278.09" y="-631.95" font-family="Times,serif" font-size="18.00">AC:{</text>
<text text-anchor="start" x="278.09" y="-611.95" font-family="Times,serif" font-size="18.00"> &#160;&quot;cost&quot; : 56</text>
<text text-anchor="middle" x="330.59" y="-591.95" font-family="Times,serif" font-size="18.00"> &#160;&quot;danger&quot; : 3}</text>
</g>
<!-- C&#45;&gt;B -->
<g id="edge3" class="edge">
<title>C&#45;&gt;B</title>
<path fill="none" stroke="black" stroke-width="1.5" d="M284.09,-353.32C255.18,-312.53 221.41,-264.87 191.89,-223.23"/>
<polygon fill="black" stroke="black" stroke-width="1.5" points="194.69,-221.12 186.05,-214.98 188.98,-225.17 194.69,-221.12"/>
<text text-anchor="start" x="255.09" y="-299.77" font-family="Times,serif" font-size="18.00">CB:{</text>
<text text-anchor="start" x="255.09" y="-279.77" font-family="Times,serif" font-size="18.00"> &#160;&quot;cost&quot; : 40</text>
<text text-anchor="middle" x="307.59" y="-259.77" font-family="Times,serif" font-size="18.00"> &#160;&quot;danger&quot; : 5}</text>
</g>
</g>
</svg>
