<?xml version="1.0" encoding="UTF-8" standalone="no"?>
<!DOCTYPE svg PUBLIC "-//W3C//DTD SVG 1.1//EN"
 "http://www.w3.org/Graphics/SVG/1.1/DTD/svg11.dtd">
<!-- Generated by graphviz version 2.43.0 (0)
 -->
<!-- Title: %3 Pages: 1 -->
<svg width="261pt" height="603pt"
 viewBox="0.00 0.00 261.12 602.75" xmlns="http://www.w3.org/2000/svg" xmlns:xlink="http://www.w3.org/1999/xlink">
<g id="graph0" class="graph" transform="scale(1 1) rotate(0) translate(4 598.75)">
<title>%3</title>
<polygon fill="white" stroke="transparent" points="-4,4 -4,-598.75 257.12,-598.75 257.12,4 -4,4"/>
<!-- C -->
<g id="node1" class="node">
<title>C</title>
<ellipse fill="white" stroke="green" stroke-width="2" cx="72.12" cy="-297.37" rx="72.25" ry="72.25"/>
<text text-anchor="start" x="20.11" y="-320.57" font-family="Times,serif" font-size="16.00">:lab&#45;C : {</text>
<text text-anchor="start" x="20.11" y="-302.57" font-family="Times,serif" font-size="16.00">money : 270;</text>
<text text-anchor="start" x="20.11" y="-284.57" font-family="Times,serif" font-size="16.00">age : 18;</text>
<text text-anchor="middle" x="72.12" y="-266.57" font-family="Times,serif" font-size="16.00">weight : 48}</text>
</g>
<!-- B -->
<g id="node2" class="node">
<title>B</title>
<ellipse fill="white" stroke="green" stroke-width="2" cx="126.12" cy="-72.12" rx="72.25" ry="72.25"/>
<text text-anchor="start" x="74.11" y="-95.32" font-family="Times,serif" font-size="16.00">:lab&#45;B : {</text>
<text text-anchor="start" x="74.11" y="-77.32" font-family="Times,serif" font-size="16.00">money : 380;</text>
<text text-anchor="start" x="74.11" y="-59.32" font-family="Times,serif" font-size="16.00">age : 30;</text>
<text text-anchor="middle" x="126.12" y="-41.32" font-family="Times,serif" font-size="16.00">weight : 64}</text>
</g>
<!-- C&#45;&gt;B -->
<g id="edge3" class="edge">
<title>C&#45;&gt;B</title>
<path fill="none" stroke="black" stroke-width="1.5" d="M88.55,-227.08C93.52,-206.23 99.01,-183.3 104.12,-162.25 104.94,-158.9 105.77,-155.47 106.62,-152.01"/>
<polygon fill="black" stroke="black" stroke-width="1.5" points="110.04,-152.75 109.02,-142.2 103.24,-151.09 110.04,-152.75"/>
<text text-anchor="start" x="104.12" y="-196.05" font-family="Times,serif" font-size="14.00">:CB : {</text>
<text text-anchor="start" x="104.12" y="-181.05" font-family="Times,serif" font-size="14.00">cost : 40;</text>
<text text-anchor="middle" x="135.12" y="-166.05" font-family="Times,serif" font-size="14.00">danger : 5}</text>
</g>
<!-- A -->
<g id="node3" class="node">
<title>A</title>
<ellipse fill="white" stroke="green" stroke-width="2" cx="126.12" cy="-522.62" rx="72.25" ry="72.25"/>
<text text-anchor="start" x="74.11" y="-545.82" font-family="Times,serif" font-size="16.00">:lab&#45;A : {</text>
<text text-anchor="start" x="74.11" y="-527.82" font-family="Times,serif" font-size="16.00">money : 100;</text>
<text text-anchor="start" x="74.11" y="-509.82" font-family="Times,serif" font-size="16.00">age : 21;</text>
<text text-anchor="middle" x="126.12" y="-491.82" font-family="Times,serif" font-size="16.00">weight : 50}</text>
</g>
<!-- A&#45;&gt;C -->
<g id="edge2" class="edge">
<title>A&#45;&gt;C</title>
<path fill="none" stroke="black" stroke-width="1.5" d="M109.02,-452.55C107.36,-445.77 105.7,-439 104.12,-432.5 99.81,-414.74 95.23,-395.64 90.91,-377.58"/>
<polygon fill="black" stroke="black" stroke-width="1.5" points="94.27,-376.58 88.55,-367.67 87.46,-378.21 94.27,-376.58"/>
<text text-anchor="start" x="104.12" y="-421.3" font-family="Times,serif" font-size="14.00">:AC : {</text>
<text text-anchor="start" x="104.12" y="-406.3" font-family="Times,serif" font-size="14.00">cost : 56;</text>
<text text-anchor="middle" x="135.12" y="-391.3" font-family="Times,serif" font-size="14.00">danger : 3}</text>
</g>
<!-- A&#45;&gt;B -->
<g id="edge1" class="edge">
<title>A&#45;&gt;B</title>
<path fill="none" stroke="black" stroke-width="1.5" d="M158.51,-457.97C161.64,-449.58 164.31,-440.96 166.12,-432.5 191.27,-315.05 191.27,-279.7 166.12,-162.25 164.99,-156.96 163.52,-151.61 161.82,-146.29"/>
<polygon fill="black" stroke="black" stroke-width="1.5" points="165.1,-145.07 158.51,-136.78 158.49,-147.37 165.1,-145.07"/>
<text text-anchor="start" x="184.12" y="-308.67" font-family="Times,serif" font-size="14.00">:AB : {</text>
<text text-anchor="start" x="184.12" y="-293.67" font-family="Times,serif" font-size="14.00">cost : 68;</text>
<text text-anchor="middle" x="218.62" y="-278.67" font-family="Times,serif" font-size="14.00">danger : 10}</text>
</g>
</g>
</svg>
