<?xml version="1.0" encoding="UTF-8" standalone="no"?>
<!DOCTYPE svg PUBLIC "-//W3C//DTD SVG 1.1//EN"
 "http://www.w3.org/Graphics/SVG/1.1/DTD/svg11.dtd">
<!-- Generated by graphviz version 2.43.0 (0)
 -->
<!-- Title: %3 Pages: 1 -->
<svg width="402pt" height="573pt"
 viewBox="0.00 0.00 402.26 573.35" xmlns="http://www.w3.org/2000/svg" xmlns:xlink="http://www.w3.org/1999/xlink">
<g id="graph0" class="graph" transform="scale(1 1) rotate(0) translate(4 569.35)">
<title>%3</title>
<polygon fill="white" stroke="transparent" points="-4,4 -4,-569.35 398.26,-569.35 398.26,4 -4,4"/>
<!-- A -->
<g id="node1" class="node">
<title>A</title>
<ellipse fill="grey" stroke="blue" stroke-width="2" cx="92.63" cy="-503.13" rx="92.76" ry="62.45"/>
<text text-anchor="start" x="35.13" y="-528.73" font-family="Times,serif" font-size="18.00">lab&#45;A:{</text>
<text text-anchor="start" x="35.13" y="-508.73" font-family="Times,serif" font-size="18.00"> &#160;&quot;money&quot; : 100</text>
<text text-anchor="start" x="35.13" y="-488.73" font-family="Times,serif" font-size="18.00"> &#160;&quot;age&quot; : 21</text>
<text text-anchor="middle" x="92.63" y="-468.73" font-family="Times,serif" font-size="18.00"> &#160;&quot;weight&quot; : 50}</text>
</g>
<!-- B -->
<g id="node2" class="node">
<title>B</title>
<ellipse fill="grey" stroke="blue" stroke-width="2" cx="92.63" cy="-62.23" rx="92.76" ry="62.45"/>
<text text-anchor="start" x="35.13" y="-87.83" font-family="Times,serif" font-size="18.00">lab&#45;B:{</text>
<text text-anchor="start" x="35.13" y="-67.83" font-family="Times,serif" font-size="18.00"> &#160;&quot;money&quot; : 380</text>
<text text-anchor="start" x="35.13" y="-47.83" font-family="Times,serif" font-size="18.00"> &#160;&quot;age&quot; : 30</text>
<text text-anchor="middle" x="92.63" y="-27.83" font-family="Times,serif" font-size="18.00"> &#160;&quot;weight&quot; : 64}</text>
</g>
<!-- A&#45;&gt;B -->
<g id="edge1" class="edge">
<title>A&#45;&gt;B</title>
<path fill="none" stroke="black" stroke-width="1.5" d="M89.27,-440.92C87.84,-411.84 86.34,-376.59 85.63,-344.9 84.4,-289.6 84.4,-275.75 85.63,-220.45 86.26,-192.35 87.51,-161.45 88.78,-134.54"/>
<polygon fill="black" stroke="black" stroke-width="1.5" points="92.29,-134.59 89.27,-124.43 85.29,-134.25 92.29,-134.59"/>
<text text-anchor="start" x="85.63" y="-298.28" font-family="Times,serif" font-size="18.00">lab&#45;AB:{</text>
<text text-anchor="start" x="85.63" y="-278.28" font-family="Times,serif" font-size="18.00"> &#160;&quot;cost&quot; : 68</text>
<text text-anchor="middle" x="142.63" y="-258.28" font-family="Times,serif" font-size="18.00"> &#160;&quot;danger&quot; : 10}</text>
</g>
<!-- C -->
<g id="node3" class="node">
<title>C</title>
<ellipse fill="grey" stroke="blue" stroke-width="2" cx="301.63" cy="-282.68" rx="92.76" ry="62.45"/>
<text text-anchor="start" x="244.13" y="-308.28" font-family="Times,serif" font-size="18.00">lab&#45;C:{</text>
<text text-anchor="start" x="244.13" y="-288.28" font-family="Times,serif" font-size="18.00"> &#160;&quot;money&quot; : 270</text>
<text text-anchor="start" x="244.13" y="-268.28" font-family="Times,serif" font-size="18.00"> &#160;&quot;age&quot; : 18</text>
<text text-anchor="middle" x="301.63" y="-248.28" font-family="Times,serif" font-size="18.00"> &#160;&quot;weight&quot; : 48}</text>
</g>
<!-- A&#45;&gt;C -->
<g id="edge2" class="edge">
<title>A&#45;&gt;C</title>
<path fill="none" stroke="black" stroke-width="1.5" d="M142.16,-450.36C173.02,-418.1 212.83,-376.5 244.95,-342.92"/>
<polygon fill="black" stroke="black" stroke-width="1.5" points="247.71,-345.1 252.09,-335.45 242.65,-340.26 247.71,-345.1"/>
<text text-anchor="start" x="221.63" y="-408.5" font-family="Times,serif" font-size="18.00">lab&#45;AC:{</text>
<text text-anchor="start" x="221.63" y="-388.5" font-family="Times,serif" font-size="18.00"> &#160;&quot;cost&quot; : 56</text>
<text text-anchor="middle" x="274.13" y="-368.5" font-family="Times,serif" font-size="18.00"> &#160;&quot;danger&quot; : 3}</text>
</g>
<!-- C&#45;&gt;B -->
<g id="edge3" class="edge">
<title>C&#45;&gt;B</title>
<path fill="none" stroke="black" stroke-width="1.5" d="M252.1,-229.91C221.24,-197.65 181.44,-156.05 149.32,-122.47"/>
<polygon fill="black" stroke="black" stroke-width="1.5" points="151.61,-119.81 142.17,-115 146.55,-124.65 151.61,-119.81"/>
<text text-anchor="start" x="221.63" y="-188.05" font-family="Times,serif" font-size="18.00">lab&#45;CB:{</text>
<text text-anchor="start" x="221.63" y="-168.05" font-family="Times,serif" font-size="18.00"> &#160;&quot;cost&quot; : 40</text>
<text text-anchor="middle" x="274.13" y="-148.05" font-family="Times,serif" font-size="18.00"> &#160;&quot;danger&quot; : 5}</text>
</g>
</g>
</svg>
