<?xml version="1.0" encoding="UTF-8" standalone="no"?>
<!DOCTYPE svg PUBLIC "-//W3C//DTD SVG 1.1//EN"
 "http://www.w3.org/Graphics/SVG/1.1/DTD/svg11.dtd">
<!-- Generated by graphviz version 2.43.0 (0)
 -->
<!-- Title: %3 Pages: 1 -->
<svg width="186pt" height="218pt"
 viewBox="0.00 0.00 186.00 218.00" xmlns="http://www.w3.org/2000/svg" xmlns:xlink="http://www.w3.org/1999/xlink">
<g id="graph0" class="graph" transform="scale(1 1) rotate(0) translate(4 214)">
<title>%3</title>
<polygon fill="white" stroke="transparent" points="-4,4 -4,-214 182,-214 182,4 -4,4"/>
<!-- A -->
<g id="node1" class="node">
<title>A</title>
<ellipse fill="none" stroke="black" cx="68" cy="-192" rx="27" ry="18"/>
<text text-anchor="middle" x="68" y="-188.3" font-family="Times,serif" font-size="14.00">nil</text>
</g>
<!-- B -->
<g id="node2" class="node">
<title>B</title>
<ellipse fill="none" stroke="black" cx="27" cy="-105" rx="27" ry="18"/>
<text text-anchor="middle" x="27" y="-101.3" font-family="Times,serif" font-size="14.00">B</text>
</g>
<!-- A&#45;&gt;B -->
<g id="edge1" class="edge">
<title>A&#45;&gt;B</title>
<path fill="none" stroke="blue" d="M48.27,-179.58C40.09,-173.69 31.47,-165.69 27,-156 23.75,-148.95 22.77,-140.73 22.87,-133.02"/>
<polygon fill="blue" stroke="blue" points="26.37,-133.18 23.57,-122.97 19.38,-132.7 26.37,-133.18"/>
<text text-anchor="middle" x="62" y="-144.8" font-family="Times,serif" font-size="14.00">Edge A to B</text>
</g>
<!-- C -->
<g id="node3" class="node">
<title>C</title>
<ellipse fill="none" stroke="black" cx="69" cy="-18" rx="27" ry="18"/>
<text text-anchor="middle" x="69" y="-14.3" font-family="Times,serif" font-size="14.00">C</text>
</g>
<!-- A&#45;&gt;C -->
<g id="edge2" class="edge">
<title>A&#45;&gt;C</title>
<path fill="none" stroke="black" d="M83.28,-177.14C88.7,-171.22 94.16,-163.87 97,-156 112.37,-113.35 112.01,-96.78 97,-54 95.45,-49.59 93.09,-45.31 90.37,-41.36"/>
<polygon fill="black" stroke="black" points="92.98,-39.01 84.06,-33.29 87.46,-43.32 92.98,-39.01"/>
<text text-anchor="middle" x="143" y="-101.3" font-family="Times,serif" font-size="14.00">Edge A to C</text>
</g>
<!-- B&#45;&gt;C -->
<g id="edge3" class="edge">
<title>B&#45;&gt;C</title>
<path fill="none" stroke="black" d="M23.98,-87C22.99,-76.94 23.17,-64.2 28,-54 31.07,-47.52 35.97,-41.79 41.33,-36.93"/>
<polygon fill="black" stroke="black" points="43.77,-39.46 49.36,-30.46 39.38,-34.01 43.77,-39.46"/>
<text text-anchor="middle" x="62.5" y="-57.8" font-family="Times,serif" font-size="14.00">Edge B to C</text>
</g>
</g>
</svg>
